<svg xmlns="http://www.w3.org/2000/svg" xmlns:xlink="http://www.w3.org/1999/xlink" width="21" height="15" version="1.1" viewBox="0 0 21 15"><title>CW</title><desc>Created with sketchtool.</desc><defs><linearGradient id="linearGradient-1" x1="50%" x2="50%" y1="0%" y2="100%"><stop offset="0%" stop-color="#FFF"/><stop offset="100%" stop-color="#F0F0F0"/></linearGradient><linearGradient id="linearGradient-2" x1="50%" x2="50%" y1="0%" y2="100%"><stop offset="0%" stop-color="#0543A8"/><stop offset="100%" stop-color="#00307D"/></linearGradient><linearGradient id="linearGradient-3" x1="50%" x2="50%" y1="0%" y2="100%"><stop offset="0%" stop-color="#FCC747"/><stop offset="100%" stop-color="#FEC539"/></linearGradient></defs><g id="Symbols" fill="none" fill-rule="evenodd" stroke="none" stroke-width="1"><g id="CW"><rect id="FlagBackground" width="21" height="15" x="0" y="0" fill="url(#linearGradient-1)"/><rect id="Mask-Copy" width="21" height="15" x="0" y="0" fill="url(#linearGradient-2)"/><rect id="Rectangle-1337" width="21" height="2" x="0" y="10" fill="url(#linearGradient-3)"/><polygon id="Star-53" fill="url(#linearGradient-1)" points="6.5 6.267 5.324 7.118 5.771 5.737 4.598 4.882 6.049 4.879 6.5 3.5 6.951 4.879 8.402 4.882 7.229 5.737 7.676 7.118"/><polygon id="Star-53-Copy" fill="url(#linearGradient-1)" points="3 3.575 2.118 4.214 2.453 3.178 1.573 2.536 2.662 2.535 3 1.5 3.338 2.535 4.427 2.536 3.547 3.178 3.882 4.214"/></g></g></svg>