<svg xmlns="http://www.w3.org/2000/svg" xmlns:xlink="http://www.w3.org/1999/xlink" width="21" height="15" version="1.1" viewBox="0 0 21 15"><title>GS</title><desc>Created with sketchtool.</desc><defs><linearGradient id="linearGradient-1" x1="50%" x2="50%" y1="0%" y2="100%"><stop offset="0%" stop-color="#FFF"/><stop offset="100%" stop-color="#F0F0F0"/></linearGradient><linearGradient id="linearGradient-2" x1="50%" x2="50%" y1="0%" y2="100%"><stop offset="0%" stop-color="#07319C"/><stop offset="100%" stop-color="#00247E"/></linearGradient><linearGradient id="linearGradient-3" x1="50%" x2="50%" y1="0%" y2="100%"><stop offset="0%" stop-color="#DB1E36"/><stop offset="100%" stop-color="#D51931"/></linearGradient><linearGradient id="linearGradient-4" x1="50%" x2="50%" y1="0%" y2="100%"><stop offset="0%" stop-color="#1E1E1E"/><stop offset="100%" stop-color="#000"/></linearGradient><ellipse id="path-5" cx=".5" cy="1.5" rx="1" ry="1.5"/><linearGradient id="linearGradient-7" x1="50%" x2="50%" y1="0%" y2="100%"><stop offset="0%" stop-color="#A2ADB0"/><stop offset="100%" stop-color="#8B9497"/></linearGradient><ellipse id="path-8" cx=".5" cy="1.5" rx="1" ry="1.5"/><linearGradient id="linearGradient-10" x1="50%" x2="50%" y1="0%" y2="100%"><stop offset="0%" stop-color="#4F4F4F"/><stop offset="100%" stop-color="#2B2B2B"/></linearGradient><linearGradient id="linearGradient-11" x1="50%" x2="50%" y1="0%" y2="100%"><stop offset="0%" stop-color="#FEC241"/><stop offset="100%" stop-color="#FEBB2C"/></linearGradient><linearGradient id="linearGradient-12" x1="50%" x2="50%" y1="0%" y2="100%"><stop offset="0%" stop-color="#A84B14"/><stop offset="100%" stop-color="#913F0E"/></linearGradient><linearGradient id="linearGradient-13" x1="50%" x2="50%" y1="0%" y2="100%"><stop offset="0%" stop-color="#CFB063"/><stop offset="100%" stop-color="#BEA157"/></linearGradient><linearGradient id="linearGradient-14" x1="50%" x2="50%" y1="0%" y2="100%"><stop offset="0%" stop-color="#2D42FF"/><stop offset="100%" stop-color="#0B24FC"/></linearGradient><linearGradient id="linearGradient-15" x1="0%" x2="100%" y1="0%" y2="50%"><stop offset="0%" stop-color="#E3DC3D"/><stop offset="100%" stop-color="#CFC82A"/></linearGradient><linearGradient id="linearGradient-16" x1="50%" x2="50%" y1="0%" y2="100%"><stop offset="0%" stop-color="#7F7D7D"/><stop offset="100%" stop-color="#656263"/></linearGradient><path id="path-17" d="M0.00681795878,0.505912304 C0.00305250412,0.226504654 0.215752602,0 0.495388985,0 L2.50461102,0 C2.7782068,0 3.00310922,0.230712891 3.00681796,0.505912304 L3.03033777,2.25115061 C3.03218993,2.38858633 2.93416692,2.56561279 2.82278051,2.63904572 L1.7277566,3.36095428 C1.61127373,3.43774711 1.41953181,3.43438721 1.31061945,3.36095428 L0.239917656,2.63904572 C0.126022043,2.56225289 0.0322437286,2.39257813 0.0303377719,2.25115061 L0.00681795878,0.505912304 Z"/><linearGradient id="linearGradient-19" x1="50%" x2="50%" y1="0%" y2="100%"><stop offset="0%" stop-color="#0F8012"/><stop offset="100%" stop-color="#0B6A0D"/></linearGradient><linearGradient id="linearGradient-20" x1="50%" x2="50%" y1="0%" y2="100%"><stop offset="0%" stop-color="#FFCF44"/><stop offset="100%" stop-color="#FCC72E"/></linearGradient></defs><g id="Symbols" fill="none" fill-rule="evenodd" stroke="none" stroke-width="1"><g id="GS"><rect id="FlagBackground" width="21" height="15" x="0" y="0" fill="url(#linearGradient-1)"/><rect id="Mask-Copy" width="21" height="15" x="0" y="0" fill="url(#linearGradient-2)"/><path id="Rectangle-36" fill="url(#linearGradient-1)" fill-rule="nonzero" d="M3,3.22996746 L-1.3516287,-0.5 L0.660232527,-0.5 L4.16023253,2 L4.85660189,2 L9.5,-0.902123821 L9.5,0.25 C9.5,0.552509227 9.33308555,0.876533554 9.08215972,1.05576629 L6,3.25730895 L6,3.77003254 L9.13722049,6.45907867 C9.59934261,6.85518335 9.34102897,7.5 8.75,7.5 C8.50478614,7.5 8.2052751,7.40393402 8.00092153,7.25796718 L4.83976747,5 L4.14339811,5 L-0.5,7.90212382 L-0.5,6.24269105 L3,3.74269105 L3,3.22996746 Z"/><path id="Rectangle-36" fill="url(#linearGradient-3)" d="M3.5,3 L-4.4408921e-16,-2.13162821e-14 L0.5,-2.13162821e-14 L4,2.5 L5,2.5 L9,-2.13162821e-14 L9,0.25 C9,0.388071187 8.91348267,0.561798096 8.79154062,0.648899555 L5.5,3 L5.5,4 L8.8118248,6.83870697 C8.91575109,6.92778665 8.8840332,7 8.75,7 L8.75,7 C8.61192881,7 8.41348267,6.9382019 8.29154062,6.85110044 L5,4.5 L4,4.5 L-4.4408921e-16,7 L-4.4408921e-16,6.5 L3.5,4 L3.5,3 Z"/><path id="Rectangle-2" fill="url(#linearGradient-1)" d="M-4.4408921e-16,2.5 L-4.4408921e-16,4.5 L3.5,4.5 L3.5,7.00461102 C3.5,7.2782068 3.71403503,7.5 4.00468445,7.5 L4.99531555,7.5 C5.27404508,7.5 5.5,7.2842474 5.5,7.00461102 L5.5,4.5 L9.00952148,4.5 C9.28040529,4.5 9.5,4.28596497 9.5,3.99531555 L9.5,3.00468445 C9.5,2.72595492 9.28494263,2.5 9.00952148,2.5 L5.5,2.5 L5.5,-2.13162821e-14 L3.5,-2.13162821e-14 L3.5,2.5 L-4.4408921e-16,2.5 Z"/><polygon id="Rectangle-36" fill="url(#linearGradient-3)" points="0 3 4 3 4 2.5 4 0 5 0 5 2.5 5 3 9 3 9 4 5 4 5 4.5 5 7 4 7 4 4.5 4 4 0 4"/><g id="Group-2" transform="translate(18.000000, 8.000000)"><mask id="mask-6" fill="#fff"><use xlink:href="#path-5"/></mask><use id="Oval-13" fill="url(#linearGradient-4)" xlink:href="#path-5"/><ellipse id="Oval-13-Copy-2" cx="0" cy="2" fill="url(#linearGradient-1)" mask="url(#mask-6)" rx="1" ry="1.5"/></g><g id="Group-3" transform="translate(14.000000, 8.000000)"><mask id="mask-9" fill="#fff"><use xlink:href="#path-8"/></mask><use id="Oval-13-Copy" fill="url(#linearGradient-7)" xlink:href="#path-8"/><ellipse id="Oval-13-Copy-3" cx="1" cy="2" fill="url(#linearGradient-10)" mask="url(#mask-9)" rx="1" ry="1.5"/></g><path id="Oval-2" fill="url(#linearGradient-11)" d="M16.5,12.5 C17.3284271,13 18,12.7761424 18,12.5 C18,12.2238576 17.3284271,12 16.5,12 C15.6715729,12 15,12.2238576 15,12.5 C15,12.7761424 15.6715729,13 16.5,12.5 Z"/><circle id="Oval" cx="18.5" cy="5.5" r="1" fill="url(#linearGradient-1)"/><circle id="Oval-Copy-4" cx="16.5" cy="4.5" r="1" fill="url(#linearGradient-12)"/><ellipse id="Oval-Copy-8" cx="16.5" cy="3.75" fill="url(#linearGradient-13)" rx="1" ry="1"/><circle id="Oval-Copy-6" cx="16.5" cy="11.5" r="1" fill="url(#linearGradient-1)"/><circle id="Oval-Copy" cx="14.5" cy="5.5" r="1" fill="url(#linearGradient-1)"/><circle id="Oval-Copy-2" cx="15" cy="6.5" r="1" fill="url(#linearGradient-14)"/><circle id="Oval-Copy-3" cx="18" cy="6.5" r="1" fill="url(#linearGradient-14)"/><ellipse id="Oval-Copy-7" cx="19" cy="8" fill="url(#linearGradient-15)" rx="1" ry="1"/><path id="Oval-10" fill="url(#linearGradient-16)" d="M16,7.5 L15.5,8 L17.5,8 L17,7.5 L17.5,6 C17.5,6 17.0522847,5 16.5,5 C15.9477153,5 15.5,6 15.5,6 L16,7.5 Z"/><path id="Oval-4" fill="#5D0543" d="M16.5,6.5 C16.5,6.5 17,6.38807119 17,6.11999989 C17,6.11192881 16.5,6 16.5,6 C16.5,6 16,6.11192881 16,6.11999989 C16,6.38807119 16.5,6.5 16.5,6.5 Z"/><g id="Group" transform="translate(15.000000, 8.000000)"><mask id="mask-18" fill="#fff"><use xlink:href="#path-17"/></mask><use id="Rectangle-4" fill="url(#linearGradient-1)" xlink:href="#path-17"/><circle id="Oval-Copy-3" cx="2.5" cy="2.5" r="1" fill="#225DA4" mask="url(#mask-18)"/><circle id="Oval-Copy-5" cx=".5" cy="1.5" r="1" fill="#225DA4" mask="url(#mask-18)"/><polygon id="Rectangle" fill="url(#linearGradient-19)" points="0 0 3 0 1.5 3" mask="url(#mask-18)"/><ellipse id="Oval-3" cx="1.5" cy="1.5" fill="url(#linearGradient-20)" mask="url(#mask-18)" rx="1" ry="1"/></g></g></g></svg>