<svg xmlns="http://www.w3.org/2000/svg" xmlns:xlink="http://www.w3.org/1999/xlink" width="21" height="15" version="1.1" viewBox="0 0 21 15"><title>PF</title><desc>Created with sketchtool.</desc><defs><linearGradient id="linearGradient-1" x1="50%" x2="50%" y1="0%" y2="100%"><stop offset="0%" stop-color="#FFF"/><stop offset="100%" stop-color="#F0F0F0"/></linearGradient><linearGradient id="linearGradient-2" x1="50%" x2="50%" y1="0%" y2="100%"><stop offset="0%" stop-color="#E02639"/><stop offset="100%" stop-color="#CA1A2C"/></linearGradient><linearGradient id="linearGradient-3" x1="50%" x2="50%" y1="0%" y2="100%"><stop offset="0%" stop-color="#DC2235"/><stop offset="100%" stop-color="#CA1A2C"/></linearGradient><circle id="path-4" cx="2.5" cy="2.5" r="2.5"/><linearGradient id="linearGradient-6" x1="50%" x2="50%" y1="0%" y2="100%"><stop offset="0%" stop-color="#FFA135"/><stop offset="100%" stop-color="#FD9C2D"/></linearGradient><linearGradient id="linearGradient-7" x1="50%" x2="50%" y1="0%" y2="100%"><stop offset="0%" stop-color="#DF2034"/><stop offset="100%" stop-color="#CA1A2C"/></linearGradient><linearGradient id="linearGradient-8" x1="50%" x2="50%" y1="0%" y2="100%"><stop offset="0%" stop-color="#0B4BAD"/><stop offset="100%" stop-color="#08429A"/></linearGradient></defs><g id="Symbols" fill="none" fill-rule="evenodd" stroke="none" stroke-width="1"><g id="PF"><rect id="FlagBackground" width="21" height="15" x="0" y="0" fill="url(#linearGradient-1)"/><rect id="Rectangle-2" width="21" height="4" x="0" y="0" fill="url(#linearGradient-2)"/><rect id="Rectangle-2" width="21" height="4" x="0" y="11" fill="url(#linearGradient-3)"/><rect id="Rectangle-2" width="21" height="7" x="0" y="4" fill="url(#linearGradient-1)"/><g id="Group" transform="translate(8.000000, 5.000000)"><mask id="mask-5" fill="#fff"><use xlink:href="#path-4"/></mask><rect id="Rectangle-1362" width="5" height="2.5" x="0" y="0" fill="url(#linearGradient-6)" mask="url(#mask-5)"/><polygon id="Rectangle-1364-Copy" fill="#FFF" points="1 1.5 4 1.5 3.5 2.5 1.5 2.5" mask="url(#mask-5)"/><path id="Combined-Shape" fill="url(#linearGradient-7)" d="M2,0 L3,0 L3,1.49531555 C3,1.77404508 2.76806641,2 2.5,2 C2.22385763,2 2,1.78596497 2,1.49531555 L2,0 Z M1,1 C1,1 1.75,2.5 2.5,2.5 C3.25,2.5 4,1 4,1 L4,2 C4,2.55228475 3.55733967,3 3.00104344,3 L1.99895656,3 C1.44724809,3 1,2.55613518 1,2 L1,1 Z" mask="url(#mask-5)"/><rect id="Rectangle-1362-Copy" width="5" height="2" x="0" y="3" fill="url(#linearGradient-8)" mask="url(#mask-5)"/><polygon id="Rectangle-1364" fill="#FFF" points="0 3.5 5 3.5 5 4 0 4" mask="url(#mask-5)"/></g></g></g></svg>