<svg xmlns="http://www.w3.org/2000/svg" xmlns:xlink="http://www.w3.org/1999/xlink" width="21" height="15" version="1.1" viewBox="0 0 21 15"><title>TF</title><desc>Created with sketchtool.</desc><defs><linearGradient id="linearGradient-1" x1="50%" x2="50%" y1="0%" y2="100%"><stop offset="0%" stop-color="#FFF"/><stop offset="100%" stop-color="#F0F0F0"/></linearGradient><linearGradient id="linearGradient-2" x1="50%" x2="50%" y1="0%" y2="100%"><stop offset="0%" stop-color="#073AB6"/><stop offset="100%" stop-color="#002B93"/></linearGradient><linearGradient id="linearGradient-3" x1="50%" x2="50%" y1="0%" y2="100%"><stop offset="0%" stop-color="#F44653"/><stop offset="100%" stop-color="#EE2A39"/></linearGradient><linearGradient id="linearGradient-4" x1="50%" x2="50%" y1="0%" y2="100%"><stop offset="0%" stop-color="#1035BB"/><stop offset="100%" stop-color="#042396"/></linearGradient></defs><g id="Symbols" fill="none" fill-rule="evenodd" stroke="none" stroke-width="1"><g id="TF"><rect id="FlagBackground" width="21" height="15" x="0" y="0" fill="url(#linearGradient-1)"/><rect id="Mask-Copy" width="21" height="15" x="0" y="0" fill="url(#linearGradient-2)"/><path id="Rectangle-1349-Copy-3" fill="url(#linearGradient-1)" d="M0,0 L9.5,0 L9.5,7.25046158 C9.5,7.38827784 9.39331055,7.5 9.24589795,7.5 L0,7.5 L0,0 Z"/><rect id="Rectangle-1349" width="3" height="7" x="6" y="0" fill="url(#linearGradient-3)"/><rect id="Rectangle-1349-Copy-2" width="3" height="7" x="0" y="0" fill="url(#linearGradient-4)"/><rect id="Rectangle-1349-Copy" width="3" height="7" x="3" y="0" fill="url(#linearGradient-1)"/><path id="Combined-Shape" fill="#FFF" d="M13,6 L18,6 L17.5,7 L16,7 L16,7.5 L17,7.5 L16.5,8.5 L16,8.5 L16,10 L15,10 L15,7 L13.5,7 L13,6 Z M17,8.5 L18,10 L16,10 L17,8.5 Z M14,8.5 L15,10 L13,10 L14,8.5 Z M15.5,11.5 L14.5,10 L16.5,10 L15.5,11.5 Z M18.5,8 C18.2238576,8 18,7.77614237 18,7.5 C18,7.22385763 18.2238576,7 18.5,7 C18.7761424,7 19,7.22385763 19,7.5 C19,7.77614237 18.7761424,8 18.5,8 Z M12.5,8 C12.2238576,8 12,7.77614237 12,7.5 C12,7.22385763 12.2238576,7 12.5,7 C12.7761424,7 13,7.22385763 13,7.5 C13,7.77614237 12.7761424,8 12.5,8 Z M13.5,12 C13.2238576,12 13,11.7761424 13,11.5 C13,11.2238576 13.2238576,11 13.5,11 C13.7761424,11 14,11.2238576 14,11.5 C14,11.7761424 13.7761424,12 13.5,12 Z M17.5,12 C17.2238576,12 17,11.7761424 17,11.5 C17,11.2238576 17.2238576,11 17.5,11 C17.7761424,11 18,11.2238576 18,11.5 C18,11.7761424 17.7761424,12 17.5,12 Z M15.5,13 C15.2238576,13 15,12.7761424 15,12.5 C15,12.2238576 15.2238576,12 15.5,12 C15.7761424,12 16,12.2238576 16,12.5 C16,12.7761424 15.7761424,13 15.5,13 Z"/></g></g></svg>