<svg xmlns="http://www.w3.org/2000/svg" xmlns:v="https://vecta.io/nano" xmlns:xlink="http://www.w3.org/1999/xlink" viewBox="0 0 600 600"><style>.An{opacity:.5}.Ao{enable-background:new}</style><linearGradient x1="0" x2=".707" y1="0" y2=".707" gradientUnits="userSpaceOnUse"><stop offset="0" stop-color="#dddee2"/><stop offset=".181" stop-color="#d9dade"/><stop offset=".366" stop-color="#cdced2"/><stop offset=".553" stop-color="#b8babd"/><stop offset=".742" stop-color="#9b9ea0"/><stop offset=".93" stop-color="#777a7c"/><stop offset="1" stop-color="#676b6c"/></linearGradient><linearGradient id="B" x1="371.896" x2="221.589" y1="166.426" y2="531.609" gradientUnits="userSpaceOnUse"><stop offset=".122" stop-color="#f1ca6d"/><stop offset=".977" stop-color="#e6aa48"/></linearGradient><path fill="url(#B)" d="M553.336 425.944l-18.016 3.048-386.332 65.405-61.711-254.432-12.575-51.824 86.903-14.025 325.796-52.597 52.83 243.943z"/><linearGradient id="C" x1="310.263" x2="337.784" y1="365.599" y2="-63.447" gradientUnits="userSpaceOnUse"><stop offset="0" stop-color="#e2b646" stop-opacity="0"/><stop offset=".977" stop-color="#8d4121"/></linearGradient><path fill="url(#C)" d="M553.336 425.944l-18.016 3.048-69.914-264.001c-.752-2.826-3.578-4.562-6.425-3.959L87.277 239.966l-12.575-51.824 86.903-14.025 325.796-52.597 52.83 243.943 13.104 60.483z" class="An"/><linearGradient id="D" x1="310.834" x2="157.352" y1="190.793" y2="635.364" gradientUnits="userSpaceOnUse"><stop offset="0" stop-color="#e2b646" stop-opacity="0"/><stop offset=".977" stop-color="#8d4121"/></linearGradient><path fill="url(#D)" d="M279.409 259.939c-69.882-19.036-83.888 41.011-6.618 57.553s80.45-37.441 6.618-57.553z" class="An"/><linearGradient id="E" x1="349.54" x2="196.057" y1="204.155" y2="648.727" gradientUnits="userSpaceOnUse"><stop offset="0" stop-color="#e2b646" stop-opacity="0"/><stop offset=".977" stop-color="#8d4121"/></linearGradient><path fill="url(#E)" d="M553.336 425.944l-62.219 10.532-342.129 57.921-30.305-124.956-43.981-181.3 86.903-14.025 4.319 2.731s11.559 143.332 91.518 167.635 92.81-46.913 189.768 3.874c42.806 22.419 72.836 23.213 93.021 17.105l13.104 60.483z" class="An"/><linearGradient id="F" x1="370.979" x2="217.496" y1="211.557" y2="656.128" gradientUnits="userSpaceOnUse"><stop offset="0" stop-color="#e2b646" stop-opacity="0"/><stop offset=".977" stop-color="#8d4121"/></linearGradient><path fill="url(#F)" d="M491.117 436.476l-342.129 57.921-30.305-124.956c42.266 37.598 102.802 46.479 182.38 40.096 121.59-9.759 155.812-1.249 190.054 26.939z" class="An"/><linearGradient id="G" x1="74.702" x2="558.962" y1="276.962" y2="276.962" gradientUnits="userSpaceOnUse"><stop offset="0" stop-color="#4c5c7d"/><stop offset=".989" stop-color="#2f4652"/></linearGradient><path fill="url(#G)" d="M558.544 394.899L496.247 138.14c-1.908-7.864-9.802-13.107-17.648-11.723l-378.428 66.727c-3.308.583-6.078 2.251-8.031 4.575l-17.438 20.659c1.953-2.324 4.723-3.992 8.031-4.575l378.428-66.727c7.846-1.383 15.739 3.86 17.648 11.723l62.296 256.758c1.105 4.552-.04 8.98-2.721 12.17l17.438-20.66c2.682-3.19 3.826-7.618 2.721-12.17z"/><linearGradient id="H" x1="469.134" x2="485.541" y1="211.451" y2="93.428" gradientUnits="userSpaceOnUse"><stop offset="0" stop-color="#47717b" stop-opacity="0"/><stop offset=".928" stop-color="#201717"/></linearGradient><path fill="url(#H)" d="M496.247 138.14l-17.438 20.66c-1.908-7.864-9.802-13.107-17.648-11.723l17.438-20.66c7.846-1.383 15.74 3.86 17.648 11.723z"/><linearGradient id="I" x1="360.934" x2="200.042" y1="172.264" y2="575.554" gradientUnits="userSpaceOnUse"><stop offset="0" stop-color="#7e96c9"/><stop offset=".928" stop-color="#4e4f7b"/></linearGradient><path fill="url(#I)" d="M599.085 405.455l-81.399-335.45c-4.181-17.19-21.466-28.675-38.614-25.647L60.223 118.209c-6.573 1.164-12.173 4.276-16.343 8.659-6.732 7.039-9.749 17.338-7.177 27.944l81.409 335.45c4.171 17.19 21.466 28.675 38.625 25.648l418.849-73.852c12.279-2.17 21.17-11.188 23.689-22.44.995-4.467.995-9.283-.191-14.163zm-52.724 3.006l-378.436 66.728c-7.843 1.387-15.75-3.863-17.656-11.728L89.417 212.723c-1.905-7.865 2.911-15.348 10.754-16.724l378.425-66.728c7.854-1.387 15.74 3.853 17.656 11.718l60.843 250.738c1.916 7.865-2.89 15.359-10.733 16.735z"/><linearGradient id="J" x1="360.113" x2="261.677" y1="75.622" y2="580.502" gradientUnits="userSpaceOnUse"><stop offset="0" stop-color="#91bae4"/><stop offset="1" stop-color="#6281a1" stop-opacity="0"/></linearGradient><path fill="url(#J)" d="M599.276 419.618L502.18 91.492c-36.518 7.843-55.296-21.636-55.296-21.636L43.88 126.868c4.17-4.382 9.77-7.494 16.343-8.659l59.139-10.426 359.711-63.425c17.148-3.027 34.433 8.457 38.614 25.647l71.258 293.671.011.042 10.13 41.737c1.186 4.88 1.186 9.696.191 14.163z"/><linearGradient id="K" x1="509.69" x2="361.499" y1="-33.127" y2="223.031" gradientUnits="userSpaceOnUse"><stop offset="0" stop-color="#fff"/><stop offset="1" stop-color="#90c9d1" stop-opacity="0"/></linearGradient><path fill="url(#K)" d="M588.945 363.676l-82.86-291.649c-2.847-10.035-12.649-16.428-22.98-14.988l-363.744 50.745 359.711-63.425c17.148-3.027 34.433 8.457 38.614 25.647l71.258 293.671z"/><linearGradient id="L" x1="318.193" x2="225.673" y1="38.343" y2="356.502" gradientUnits="userSpaceOnUse"><stop offset="0" stop-color="#91bae4"/><stop offset="1" stop-color="#6281a1" stop-opacity="0"/></linearGradient><path fill="url(#L)" d="M295.566 101.39c-68.581 9.326-66.63 38.43 3.328 30.082s53.675-37.833-3.328-30.082z"/><linearGradient id="M" x1="251.255" x2="374.042" y1="422.037" y2="160.587" gradientUnits="userSpaceOnUse"><stop offset="0" stop-color="#97cdd6" stop-opacity="0"/><stop offset=".928" stop-color="#3f4d69"/></linearGradient><path fill="url(#M)" d="M575.585 442.055l-418.849 73.852c-17.158 3.027-34.454-8.458-38.625-25.648l-81.409-335.45c-1.768-7.304-.889-14.47 2.032-20.514 68.231 5.949 113.143-5.981 145.639 46.849l-84.204 14.851c-7.844 1.376-12.66 8.86-10.754 16.724l1.133 4.679 59.721 246.059c1.905 7.865 9.812 13.115 17.656 11.728l371.069-65.426 7.367-1.302c7.844-1.376 12.649-8.87 10.733-16.735l-1.344-5.557c12.183-6.182 23.361-13.644 33.205-22.451l10.13 41.737c4.181 17.19-6.351 33.576-23.499 36.603z"/><linearGradient id="N" x1="146.207" x2="290.163" y1="581.297" y2="352.661" gradientUnits="userSpaceOnUse"><stop offset="0" stop-color="#91bae4"/><stop offset="1" stop-color="#6281a1" stop-opacity="0"/></linearGradient><path fill="url(#N)" d="M538.993 409.76c-.053.021-.117.032-.18.042l-377.568 74.487a16.27 16.27 0 0 1-19.074-12.713L90.58 218.446a2.93 2.93 0 0 1-.032-1.048l59.721 246.059c1.905 7.865 9.812 13.115 17.656 11.728l371.069-65.426z"/><linearGradient id="O" x1="173.742" x2="256.305" y1="676.972" y2="440.926" gradientUnits="userSpaceOnUse"><stop offset="0" stop-color="#91bae4"/><stop offset="1" stop-color="#6281a1" stop-opacity="0"/></linearGradient><path fill="url(#O)" d="M575.587 442.058L156.737 515.91c-17.158 3.027-34.454-8.457-38.625-25.648l-81.409-335.45 91.218 325.638c3.682 13.143 16.51 21.544 30.029 19.664l417.637-58.056z"/><linearGradient id="P" x1="307.352" x2="264.485" y1="235.06" y2="520.842" gradientUnits="userSpaceOnUse"><stop offset="0" stop-color="#4c5c7d"/><stop offset=".989" stop-color="#2f4652"/></linearGradient><path fill="url(#P)" d="M575.586 439.209l-418.849 73.854c-17.162 3.026-34.45-8.459-38.622-25.651L36.706 151.966c-2.414-9.947.747-17.803 6.612-24.78L6.869 167.942c-5.865 6.977-8.371 16.655-5.957 26.602l81.408 335.447c4.172 17.191 21.46 28.677 38.622 25.651l418.849-73.854c7.227-1.274 13.277-4.921 17.547-10l35.793-42.579c-4.27 5.079-10.32 8.726-17.547 10z"/><linearGradient id="Q" x1="12.189" x2="38.123" y1="115.911" y2="233.405" gradientUnits="userSpaceOnUse"><stop offset="0" stop-color="#91bae4"/><stop offset="1" stop-color="#6281a1" stop-opacity="0"/></linearGradient><path fill="url(#Q)" d="M6.869 167.943l36.448-40.757c-5.865 6.977-9.026 14.833-6.612 24.78L.913 194.545c-2.414-9.947.092-19.625 5.957-26.602z"/><linearGradient id="R" x1="284.907" x2="344.889" y1="307.895" y2="548.528" gradientUnits="userSpaceOnUse"><stop offset="0" stop-color="#47717b" stop-opacity="0"/><stop offset=".928" stop-color="#201717"/></linearGradient><path fill="url(#R)" d="M575.585 439.207l-35.788 42.584-418.849 73.852c-17.169 3.027-34.454-8.457-38.625-25.648l35.788-42.584c4.171 17.19 21.466 28.675 38.625 25.648l418.849-73.852z"/><linearGradient id="S" x1="300.078" x2="360.06" y1="304.114" y2="544.747" gradientUnits="userSpaceOnUse"><stop offset="0" stop-color="#47717b" stop-opacity="0"/><stop offset=".928" stop-color="#201717"/></linearGradient><path fill="url(#S)" d="M575.586 439.209l-35.793 42.579-418.849 73.854 35.793-42.579z"/><g class="An"><linearGradient id="T" x1="454.935" x2="351.201" y1="33.628" y2="511.012" gradientUnits="userSpaceOnUse"><stop offset="0" stop-color="#e2b646" stop-opacity="0"/><stop offset=".977" stop-color="#8d4121"/></linearGradient><use fill="url(#T)" xlink:href="#An"/><linearGradient id="U" x1="373.186" x2="269.453" y1="15.864" y2="493.249" gradientUnits="userSpaceOnUse"><stop offset="0" stop-color="#e2b646" stop-opacity="0"/><stop offset=".977" stop-color="#8d4121"/></linearGradient><use fill="url(#U)" xlink:href="#Ao"/><linearGradient id="V" x1="287.117" x2="183.384" y1="-2.838" y2="474.546" gradientUnits="userSpaceOnUse"><stop offset="0" stop-color="#e2b646" stop-opacity="0"/><stop offset=".977" stop-color="#8d4121"/></linearGradient><path fill="url(#V)" d="M251.854 370.571c-1.704 2.763-4.541 4.731-7.865 5.314-2.011.36-4.192.212-6.404-.572l-62.452-21.932c-8.627-3.027-11.665-13.464-6.309-19.783.349-.434.752-.836 1.196-1.228l47.082-41.366c1.672-1.471 3.62-2.35 5.631-2.699 6.319-1.122 13.348 2.921 15.073 10.003l.794 3.271c1.037 4.287-.254 8.648-3.408 11.474l-25.933 23.372a.84.84 0 0 0 .095.042l34.592 12.639c4.202 1.535 7.42 5.113 8.457 9.378l.762 3.112c.815 3.355.212 6.489-1.313 8.976z"/></g><g class="Ao"><linearGradient id="W" x1="378.717" x2="459.582" y1="302.144" y2="302.144" gradientUnits="userSpaceOnUse"><stop offset="0" stop-color="#54b8e4"/><stop offset="1" stop-color="#3f89bf"/></linearGradient><path fill="url(#W)" d="M459.582 272.917l-11.94 14.194-47.082 41.366c-1.672 1.471-3.62 2.35-5.631 2.71-6.319 1.111-13.348-2.932-15.062-10.013l-.794-3.271c-.91-3.758-.042-7.568 2.308-10.352l11.929-14.194c-2.339 2.784-3.218 6.605-2.308 10.352l.794 3.271c1.715 7.081 8.743 11.125 15.063 10.013 2.011-.36 3.959-1.238 5.642-2.71l47.082-41.366z"/><linearGradient id="X" x1="364.141" x2="420.332" y1="258.204" y2="258.204" gradientUnits="userSpaceOnUse"><stop offset="0" stop-color="#54b8e4"/><stop offset="1" stop-color="#3f89bf"/></linearGradient><path fill="url(#X)" d="M408.403 283.058l-34.687-12.681c-4.202-1.535-7.42-5.102-8.457-9.378l-.752-3.112c-.974-4.001.064-7.685 2.286-10.342l11.929-14.195c-2.223 2.657-3.26 6.34-2.286 10.342l.751 3.112c1.037 4.276 4.255 7.844 8.457 9.389l34.687 12.67-11.929 14.194z"/><linearGradient id="Y" x1="394.142" x2="391.496" y1="232.34" y2="296.379" gradientUnits="userSpaceOnUse"><stop offset="0" stop-color="#2f789e" stop-opacity="0"/><stop offset="1" stop-color="#273b5f"/></linearGradient><path fill="url(#Y)" d="M420.332 268.863l-11.929 14.194-34.687-12.681c-4.202-1.535-7.42-5.102-8.457-9.378l11.929-14.195c1.037 4.276 4.255 7.844 8.457 9.389l34.687 12.67z"/><linearGradient id="Z" x1="351.592" x2="458.765" y1="235.969" y2="315.356" gradientUnits="userSpaceOnUse"><stop offset="0" stop-color="#2f789e" stop-opacity="0"/><stop offset="1" stop-color="#273b5f"/></linearGradient><path fill="url(#Z)" d="M420.338 268.865l-11.931 14.193-34.694-12.677 11.931-14.193z"/><linearGradient id="a" x1="410.141" x2="433.031" y1="274.101" y2="329.407" gradientUnits="userSpaceOnUse"><stop offset="0" stop-color="#2f789e" stop-opacity="0"/><stop offset="1" stop-color="#273b5f"/></linearGradient><path fill="url(#a)" d="M459.582 272.917l-11.94 14.194-47.082 41.366c-1.672 1.471-3.62 2.35-5.631 2.71-6.319 1.111-13.348-2.932-15.062-10.013l11.929-14.194c1.715 7.081 8.743 11.125 15.063 10.013 2.011-.36 3.959-1.238 5.642-2.71l47.082-41.366z"/><linearGradient id="b" x1="420.086" x2="430.936" y1="262.708" y2="303.989" gradientUnits="userSpaceOnUse"><stop offset="0" stop-color="#2f789e" stop-opacity="0"/><stop offset="1" stop-color="#273b5f"/></linearGradient><path fill="url(#b)" d="M459.578 272.917l-11.931 14.193-47.082 41.367 11.931-14.193z"/><linearGradient id="c" x1="447.647" x2="460.804" y1="279.388" y2="279.388" gradientUnits="userSpaceOnUse"><stop offset="0" stop-color="#54b8e4"/><stop offset="1" stop-color="#3f89bf"/></linearGradient><path fill="url(#c)" d="M460.804 271.666l-11.931 14.193a11.62 11.62 0 0 1-1.226 1.252l11.931-14.193a11.62 11.62 0 0 0 1.226-1.252z"/><linearGradient id="d" x1="399.235" x2="366.071" y1="292.59" y2="550.138" gradientUnits="userSpaceOnUse"><stop offset="0" stop-color="#54b8e4"/><stop offset="1" stop-color="#3f89bf"/></linearGradient><use x="19.685" y="-33.604" fill="url(#d)" xlink:href="#An"/><linearGradient id="e" x1="440.896" x2="396.792" y1="227.921" y2="283.845" gradientUnits="userSpaceOnUse"><stop offset="0" stop-color="#c0e0ed"/><stop offset="1" stop-color="#68bde9"/></linearGradient><path fill="url(#e)" d="M459.582 272.917l-31.787 27.923 28.135-33.152c-13.813-1.408-8.288-12.257-8.288-12.257l-62.388-25.954c.116-.032.233-.053.349-.074 2.011-.349 4.192-.201 6.415.572l62.441 21.932c9.209 3.228 12.056 14.914 5.123 21.011z"/><linearGradient id="f" x1="393.659" x2="424.18" y1="277.056" y2="307.223" gradientUnits="userSpaceOnUse"><stop offset="0" stop-color="#c0e0ed"/><stop offset="1" stop-color="#68bde9"/></linearGradient><path fill="url(#f)" d="M402.698 317.004c-4.964-.804-9.558-4.488-10.903-10.024l-.794-3.271c-1.048-4.287.254-8.648 3.387-11.474l25.923-23.361h.011c-.487.508-16.005 16.661-22.61 25.669-6.542 8.944-2.53 20.069 4.986 22.461z"/><linearGradient id="g" x1="374.52" x2="299.719" y1="211.209" y2="324.822" gradientUnits="userSpaceOnUse"><stop offset="0" stop-color="#54b8e4"/><stop offset="1" stop-color="#3f89bf"/></linearGradient><path fill="url(#g)" d="M321.558 368.775c-8.423 1.485-16.307-5.89-15.316-14.322l16.762-142.435c.268-2.301 1.187-4.373 2.584-6.034l-11.931 14.193c-1.396 1.661-2.316 3.733-2.584 6.034l-16.762 142.435c-.991 8.432 6.893 15.807 15.316 14.322 2.773-.489 5.157-1.897 6.845-3.904l11.931-14.193c-1.687 2.007-4.071 3.415-6.845 3.904z"/><linearGradient id="h" x1="319.821" x2="315.763" y1="202.876" y2="238.865" gradientUnits="userSpaceOnUse"><stop offset="0" stop-color="#c0e0ed"/><stop offset="1" stop-color="#68bde9"/></linearGradient><path fill="url(#h)" d="M313.656 220.177l11.931-14.193c-1.396 1.661-2.316 3.733-2.584 6.034l-11.931 14.193c.268-2.301 1.187-4.373 2.584-6.034z"/><linearGradient id="i" x1="307.96" x2="313.958" y1="331.058" y2="396.685" gradientUnits="userSpaceOnUse"><stop offset="0" stop-color="#2f789e" stop-opacity="0"/><stop offset="1" stop-color="#273b5f"/></linearGradient><path fill="url(#i)" d="M328.402 364.871l-11.931 14.193c-1.687 2.007-4.071 3.415-6.845 3.904-8.423 1.485-16.307-5.89-15.316-14.322l11.931-14.193c-.991 8.432 6.893 15.807 15.316 14.322 2.773-.489 5.157-1.897 6.845-3.904z"/><linearGradient id="j" x1="312.158" x2="278.991" y1="281.375" y2="538.945" gradientUnits="userSpaceOnUse"><stop offset="0" stop-color="#54b8e4"/><stop offset="1" stop-color="#3f89bf"/></linearGradient><use x="19.685" y="-33.604" fill="url(#j)" xlink:href="#Ao"/><linearGradient id="k" x1="319.433" x2="330.547" y1="190.739" y2="254.778" gradientUnits="userSpaceOnUse"><stop offset="0" stop-color="#c0e0ed"/><stop offset="1" stop-color="#68bde9"/></linearGradient><path fill="url(#k)" d="M347.751 216.404l-1.006 8.563c-.804-11.824-4.34-14.83-4.34-14.83-9.262 8.066-15.412 2.371-15.412 2.371-1.164 4.604-9.876 58.461-13.792 82.796l9.802-83.283c.593-5.081 4.361-9.05 9.431-9.939 8.426-1.492 16.301 5.885 15.316 14.322z"/><linearGradient id="l" x1="242.95" x2="255.974" y1="285.984" y2="285.984" gradientUnits="userSpaceOnUse"><stop offset="0" stop-color="#54b8e4"/><stop offset="1" stop-color="#3f89bf"/></linearGradient><path fill="url(#l)" d="M255.974 278.323l-11.931 14.193c-.335.398-.7.776-1.094 1.129l11.931-14.193c.394-.353.759-.731 1.094-1.129z"/><linearGradient id="m" x1="256.278" x2="248.516" y1="248.791" y2="267.668" gradientUnits="userSpaceOnUse"><stop offset="0" stop-color="#54b8e4"/><stop offset="1" stop-color="#3f89bf"/></linearGradient><path fill="url(#m)" d="M254.881 279.452l-11.931 14.193-25.937 23.368 11.931-14.193z"/><linearGradient id="n" x1="231.907" x2="221.851" y1="266.091" y2="331.983" gradientUnits="userSpaceOnUse"><stop offset="0" stop-color="#54b8e4"/><stop offset="1" stop-color="#3f89bf"/></linearGradient><path fill="url(#n)" d="M270.554 338.333l-11.929 14.194a11.67 11.67 0 0 1-6.891 3.948c-2.001.349-4.181.201-6.404-.572l-62.441-21.932c-8.606-3.017-11.665-13.432-6.351-19.752l11.929-14.194c-5.314 6.319-2.255 16.735 6.351 19.752l62.452 21.932c2.212.783 4.393.931 6.404.572 2.742-.487 5.165-1.905 6.88-3.948z"/><linearGradient id="o" x1="225.156" x2="201.043" y1="317.16" y2="348.703" gradientUnits="userSpaceOnUse"><stop offset="0" stop-color="#2f789e" stop-opacity="0"/><stop offset="1" stop-color="#273b5f"/></linearGradient><path fill="url(#o)" d="M257.27 341.709l-11.94 14.194-62.441-21.932c-8.606-3.017-11.665-13.432-6.351-19.752l11.929-14.194c-5.314 6.319-2.255 16.735 6.351 19.752l62.452 21.932z"/><linearGradient id="p" x1="215.256" x2="179.002" y1="288.072" y2="323.532" gradientUnits="userSpaceOnUse"><stop offset="0" stop-color="#2f789e" stop-opacity="0"/><stop offset="1" stop-color="#273b5f"/></linearGradient><path fill="url(#p)" d="M176.542 314.217l11.931-14.193c-5.317 6.325-2.262 16.736 6.35 19.756l-11.931 14.193c-8.611-3.02-11.667-13.431-6.35-19.756z"/><linearGradient id="q" x1="240.243" x2="207.076" y1="235.977" y2="493.552" gradientUnits="userSpaceOnUse"><stop offset="0" stop-color="#54b8e4"/><stop offset="1" stop-color="#3f89bf"/></linearGradient><path fill="url(#q)" d="M271.539 336.967c-1.704 2.763-4.541 4.731-7.865 5.314-2.011.36-4.192.212-6.404-.572l-62.452-21.932c-8.627-3.027-11.665-13.464-6.309-19.783.349-.434.752-.836 1.196-1.228l47.082-41.366c1.672-1.471 3.62-2.35 5.631-2.699 6.319-1.122 13.348 2.921 15.073 10.003l.794 3.271c1.037 4.287-.254 8.648-3.408 11.474l-25.933 23.372a.83.83 0 0 0 .095.042l34.592 12.639c4.202 1.535 7.42 5.113 8.457 9.378l.762 3.112c.815 3.355.212 6.489-1.313 8.976z"/><linearGradient id="r" x1="243.218" x2="214.991" y1="248.689" y2="303.555" gradientUnits="userSpaceOnUse"><stop offset="0" stop-color="#c0e0ed"/><stop offset="1" stop-color="#68bde9"/></linearGradient><path fill="url(#r)" d="M254.878 279.448c4.043-8.743-1.122-13.697-1.122-13.697-12.257.963-13.051-5.557-13.051-5.557l-52.195 39.8c.349-.434.752-.836 1.196-1.228l47.082-41.366c1.672-1.471 3.62-2.35 5.631-2.699 6.319-1.122 13.348 2.921 15.073 10.003l.794 3.271c1.037 4.287-.254 8.648-3.408 11.474z"/><linearGradient id="s" x1="268.645" x2="233.008" y1="304.195" y2="334.715" gradientUnits="userSpaceOnUse"><stop offset="0" stop-color="#c0e0ed"/><stop offset="1" stop-color="#68bde9"/></linearGradient><path fill="url(#s)" d="M271.539 336.967c.942-5.229-.233-10.86-3.493-13.845-4.509-4.118-36.973-19.307-39.006-20.26l34.592 12.639c4.202 1.535 7.42 5.113 8.457 9.378l.762 3.112c.815 3.355.212 6.489-1.313 8.976z"/><linearGradient id="t" x1="346.018" x2="389.575" y1="106.089" y2="106.089" gradientUnits="userSpaceOnUse"><stop offset=".122" stop-color="#f1ca6d"/><stop offset=".977" stop-color="#e6aa48"/></linearGradient><path fill="url(#t)" d="M389.575 109.166l-4.996 5.938c-1.08 1.281-2.604 2.202-4.435 2.53l-21.318 3.758c-4.34.762-8.722-2.138-9.77-6.499l-2.805-11.559c-.614-2.509.021-4.964 1.503-6.732l4.996-5.938c-1.482 1.768-2.117 4.223-1.514 6.732l2.805 11.559c1.059 4.361 5.43 7.261 9.77 6.499l21.329-3.758c1.821-.328 3.355-1.249 4.435-2.53z"/><linearGradient id="u" x1="347.237" x2="360.997" y1="90.427" y2="130.473" gradientUnits="userSpaceOnUse"><stop offset="0" stop-color="#fff"/><stop offset="1" stop-color="#efedee" stop-opacity="0"/></linearGradient><use fill="url(#u)" xlink:href="#Ap"/><linearGradient id="v" x1="367.137" x2="367.004" y1="107.762" y2="126.418" gradientUnits="userSpaceOnUse"><stop offset="0" stop-color="#e2b646" stop-opacity="0"/><stop offset=".977" stop-color="#8d4121"/></linearGradient><path fill="url(#v)" d="M385.14 111.696l-4.996 5.938-21.318 3.758c-4.34.762-8.722-2.138-9.77-6.499l4.986-5.938c1.059 4.361 5.43 7.261 9.77 6.499l21.329-3.758z"/><linearGradient id="w" x1="372.041" x2="371.909" y1="107.797" y2="126.453" gradientUnits="userSpaceOnUse"><stop offset="0" stop-color="#e2b646" stop-opacity="0"/><stop offset=".977" stop-color="#8d4121"/></linearGradient><path fill="url(#w)" d="M385.136 111.694l-4.992 5.939-21.321 3.759 4.992-5.939z"/><linearGradient id="x" x1="382.351" x2="347.244" y1="83.606" y2="134.767" gradientUnits="userSpaceOnUse"><stop offset=".122" stop-color="#f1ca6d"/><stop offset=".977" stop-color="#e6aa48"/></linearGradient><path fill="url(#x)" d="M385.14 111.696l-21.329 3.758c-4.34.762-8.712-2.138-9.77-6.499l-2.805-11.559c-.72-3.006.318-5.917 2.466-7.674.445-.36.931-.677 1.461-.931.614-.307 1.291-.529 2.022-.656l21.318-3.758c4.34-.762 8.722 2.138 9.77 6.489l2.752 11.337.053.222c1.059 4.361-1.598 8.5-5.938 9.272z"/><linearGradient id="y" x1="371.96" x2="374.254" y1="73.175" y2="118.338" gradientUnits="userSpaceOnUse"><stop offset="0" stop-color="#fff"/><stop offset="1" stop-color="#efedee" stop-opacity="0"/></linearGradient><path fill="url(#y)" d="M388.273 90.865l2.752 11.337-5.684-9.738c-1.63-2.794-4.657-4.467-7.886-4.372l-22.292.699c.614-.307 1.291-.529 2.022-.656l21.318-3.758c4.34-.762 8.722 2.138 9.77 6.489z"/><linearGradient id="z" x1="369.141" x2="376.727" y1="78.89" y2="157.925" gradientUnits="userSpaceOnUse"><stop offset="0" stop-color="#e2b646" stop-opacity="0"/><stop offset=".977" stop-color="#8d4121"/></linearGradient><path fill="url(#z)" d="M391.078 102.424c1.059 4.361-1.598 8.5-5.938 9.272l-21.329 3.758c-4.34.762-8.712-2.138-9.77-6.499l-2.805-11.559c-.72-3.006.318-5.917 2.466-7.674 7.738 12.289 29.596 17.709 37.323 12.48l.053.222z"/><linearGradient id="AA" x1="394.931" x2="438.488" y1="97.462" y2="97.462" gradientUnits="userSpaceOnUse"><stop offset=".122" stop-color="#f1ca6d"/><stop offset=".977" stop-color="#e6aa48"/></linearGradient><path fill="url(#AA)" d="M438.488 100.54l-4.996 5.938a7.41 7.41 0 0 1-4.435 2.53l-21.318 3.758c-4.34.762-8.712-2.138-9.77-6.499l-2.805-11.548c-.614-2.519.021-4.975 1.503-6.732l4.996-5.949c-1.482 1.768-2.117 4.223-1.514 6.732l2.805 11.559c1.059 4.361 5.441 7.261 9.781 6.499l21.318-3.758a7.44 7.44 0 0 0 4.435-2.53z"/><linearGradient id="AB" x1="344.722" x2="358.483" y1="83.108" y2="123.155" gradientUnits="userSpaceOnUse"><stop offset="0" stop-color="#fff"/><stop offset="1" stop-color="#efedee" stop-opacity="0"/></linearGradient><use x="48.915" y="-8.625" fill="url(#AB)" xlink:href="#Ap"/><g class="An"><linearGradient id="AC" x1="416.593" x2="415.535" y1="83.052" y2="122.349" gradientUnits="userSpaceOnUse"><stop offset="0" stop-color="#e2b646" stop-opacity="0"/><stop offset=".977" stop-color="#8d4121"/></linearGradient><path fill="url(#AC)" d="M434.053 103.069l-4.996 5.938-21.318 3.758c-4.34.762-8.712-2.138-9.77-6.499l4.986-5.938c1.059 4.361 5.441 7.261 9.781 6.499l21.318-3.758z"/></g><linearGradient id="AD" x1="421.561" x2="420.502" y1="83.186" y2="122.483" gradientUnits="userSpaceOnUse"><stop offset="0" stop-color="#e2b646" stop-opacity="0"/><stop offset=".977" stop-color="#8d4121"/></linearGradient><path fill="url(#AD)" d="M434.051 103.069l-4.992 5.939-21.321 3.759 4.992-5.939z"/><linearGradient id="AE" x1="423.196" x2="406.613" y1="82.124" y2="130.815" gradientUnits="userSpaceOnUse"><stop offset=".122" stop-color="#f1ca6d"/><stop offset=".977" stop-color="#e6aa48"/></linearGradient><path fill="url(#AE)" d="M434.053 103.069l-21.318 3.758c-4.34.762-8.722-2.138-9.781-6.499l-2.805-11.559c-.699-2.879.243-5.684 2.223-7.462 1.006-.9 2.265-1.545 3.726-1.799l21.329-3.758c4.34-.762 8.711 2.149 9.77 6.489l2.456 10.151.339 1.408c1.059 4.361-1.598 8.51-5.938 9.272z"/><linearGradient id="AF" x1="420.194" x2="422.487" y1="70.726" y2="115.888" gradientUnits="userSpaceOnUse"><stop offset="0" stop-color="#fff"/><stop offset="1" stop-color="#efedee" stop-opacity="0"/></linearGradient><path fill="url(#AF)" d="M437.197 82.238l2.456 10.151-5.06-8.817c-1.704-2.985-4.996-4.7-8.426-4.393l-23.795 2.128c1.006-.9 2.265-1.545 3.726-1.799l21.329-3.758c4.34-.762 8.711 2.149 9.77 6.489z"/><linearGradient id="AG" x1="418.427" x2="426.013" y1="74.159" y2="153.194" gradientUnits="userSpaceOnUse"><stop offset="0" stop-color="#e2b646" stop-opacity="0"/><stop offset=".977" stop-color="#8d4121"/></linearGradient><path fill="url(#AG)" d="M439.991 93.797c1.059 4.361-1.598 8.51-5.938 9.272l-21.318 3.758c-4.34.762-8.722-2.138-9.781-6.499l-2.805-11.559c-.699-2.879.243-5.684 2.223-7.462 2.435 1.81 5.367 4.266 8.775 7.589 10.289 10.003 25.182 11.421 28.505 3.493l.339 1.408z"/><linearGradient id="AH" x1="443.844" x2="487.402" y1="88.842" y2="88.842" gradientUnits="userSpaceOnUse"><stop offset=".122" stop-color="#f1ca6d"/><stop offset=".977" stop-color="#e6aa48"/></linearGradient><path fill="url(#AH)" d="M487.402 91.913l-4.986 5.938c-1.08 1.291-2.615 2.212-4.446 2.53l-21.308 3.758c-4.35.773-8.722-2.138-9.781-6.499l-2.805-11.548c-.614-2.519.021-4.964 1.503-6.732l4.996-5.938c-1.482 1.768-2.117 4.213-1.503 6.732l2.805 11.548c1.048 4.361 5.43 7.272 9.781 6.499l21.308-3.758c1.831-.318 3.355-1.238 4.435-2.53z"/><linearGradient id="AI" x1="440.037" x2="453.798" y1="58.539" y2="98.586" gradientUnits="userSpaceOnUse"><stop offset="0" stop-color="#fff"/><stop offset="1" stop-color="#efedee" stop-opacity="0"/></linearGradient><path fill="url(#AI)" d="M445.584 79.359l4.992-5.939c-1.484 1.765-2.117 4.213-1.507 6.729l-4.992 5.939c-.611-2.516.023-4.964 1.507-6.729z"/><linearGradient id="AJ" x1="459.924" x2="469.098" y1="80.939" y2="108.725" gradientUnits="userSpaceOnUse"><stop offset="0" stop-color="#e2b646" stop-opacity="0"/><stop offset=".977" stop-color="#8d4121"/></linearGradient><path fill="url(#AJ)" d="M482.966 94.443l-4.996 5.938-21.308 3.758c-4.35.773-8.722-2.138-9.781-6.499l4.996-5.938c1.048 4.361 5.43 7.272 9.781 6.499l21.308-3.758z"/><linearGradient id="AK" x1="463.379" x2="472.552" y1="79.799" y2="107.584" gradientUnits="userSpaceOnUse"><stop offset="0" stop-color="#e2b646" stop-opacity="0"/><stop offset=".977" stop-color="#8d4121"/></linearGradient><path fill="url(#AK)" d="M482.966 94.444l-4.992 5.939-21.311 3.758 4.992-5.939z"/><linearGradient id="AL" x1="471.608" x2="450.791" y1="74.554" y2="139.123" gradientUnits="userSpaceOnUse"><stop offset=".122" stop-color="#f1ca6d"/><stop offset=".977" stop-color="#e6aa48"/></linearGradient><path fill="url(#AL)" d="M482.966 94.443L461.659 98.2c-4.35.773-8.733-2.138-9.781-6.499l-2.805-11.548c-.879-3.609.804-7.092 3.895-8.606a7.54 7.54 0 0 1 2.053-.667l21.318-3.758c4.34-.762 8.711 2.149 9.77 6.499L488.386 83l.529 2.17c1.059 4.361-1.609 8.51-5.949 9.272z"/><linearGradient id="AM" x1="474.6" x2="467.984" y1="53.503" y2="93.594" gradientUnits="userSpaceOnUse"><stop offset="0" stop-color="#fff"/><stop offset="1" stop-color="#efedee" stop-opacity="0"/></linearGradient><path fill="url(#AM)" d="M488.386 83l-5.441-8.341a8.78 8.78 0 0 0-7.727-3.991l-22.25.879a7.54 7.54 0 0 1 2.053-.667l21.318-3.758c4.34-.762 8.711 2.149 9.77 6.499L488.386 83z"/><linearGradient id="AN" x1="467.724" x2="475.31" y1="69.428" y2="148.463" gradientUnits="userSpaceOnUse"><stop offset="0" stop-color="#e2b646" stop-opacity="0"/><stop offset=".977" stop-color="#8d4121"/></linearGradient><path fill="url(#AN)" d="M482.966 94.443L461.659 98.2c-4.35.773-8.733-2.138-9.781-6.499l-2.805-11.548c-.879-3.609.804-7.092 3.895-8.606 1.514 5.483 5.303 13.2 14.935 16.259 9.304 2.943 16.29-1.016 20.482-4.806l.529 2.17c1.059 4.361-1.609 8.51-5.949 9.272z"/></g><linearGradient id="AO" x1="496.047" x2="498.119" y1="152.246" y2="160.8" gradientUnits="userSpaceOnUse"><stop offset="0" stop-color="#4c5c7d"/><stop offset=".989" stop-color="#2f4652"/></linearGradient><path fill="url(#AO)" d="M500.243 157.533l-10.266 11.802 11.126-8.531 6.517-2.929z"/><linearGradient id="AP" x1="499.184" x2="498.381" y1="158.568" y2="169.061" gradientUnits="userSpaceOnUse"><stop offset="0" stop-color="#91bae4"/><stop offset="1" stop-color="#6281a1" stop-opacity="0"/></linearGradient><path fill="url(#AP)" d="M501.326 161.898l-11.349 7.437 11.126-8.531 6.517-2.929z"/><linearGradient id="AQ" x1="525.196" x2="527.268" y1="272.156" y2="280.71" gradientUnits="userSpaceOnUse"><stop offset="0" stop-color="#4c5c7d"/><stop offset=".989" stop-color="#2f4652"/></linearGradient><path fill="url(#AQ)" d="M529.392 277.443l-10.266 11.802 11.126-8.531 6.517-2.929z"/><linearGradient id="AR" x1="528.333" x2="527.53" y1="278.478" y2="288.971" gradientUnits="userSpaceOnUse"><stop offset="0" stop-color="#91bae4"/><stop offset="1" stop-color="#6281a1" stop-opacity="0"/></linearGradient><path fill="url(#AR)" d="M530.474 281.808l-11.349 7.437 11.126-8.531 6.517-2.929z"/><linearGradient id="AS" x1="498.24" x2="490.133" y1="167.246" y2="151.572" gradientUnits="userSpaceOnUse"><stop offset="0" stop-color="#4c5c7d"/><stop offset=".989" stop-color="#2f4652"/></linearGradient><path fill="url(#AS)" d="M497.686 146.897l-16.366 19.809 17.287-16.025 6.193-2.925z"/><linearGradient id="AT" x1="491.832" x2="493.909" y1="150.419" y2="161.944" gradientUnits="userSpaceOnUse"><stop offset="0" stop-color="#91bae4"/><stop offset="1" stop-color="#6281a1" stop-opacity="0"/></linearGradient><path fill="url(#AT)" d="M481.32 166.705l17.666-14.419 5.814-4.532-6.193 2.925z"/><linearGradient id="AU" x1="549.06" x2="540.953" y1="377.215" y2="361.542" gradientUnits="userSpaceOnUse"><stop offset="0" stop-color="#4c5c7d"/><stop offset=".989" stop-color="#2f4652"/></linearGradient><path fill="url(#AU)" d="M548.505 356.866l-16.366 19.809 17.287-16.025 6.193-2.925z"/><linearGradient id="AV" x1="542.651" x2="544.729" y1="360.388" y2="371.913" gradientUnits="userSpaceOnUse"><stop offset="0" stop-color="#91bae4"/><stop offset="1" stop-color="#6281a1" stop-opacity="0"/></linearGradient><path fill="url(#AV)" d="M532.139 376.675l17.666-14.419 5.814-4.532-6.193 2.925z"/><linearGradient id="AW" x1="446.779" x2="433.193" y1="154.963" y2="139.809" gradientUnits="userSpaceOnUse"><stop offset="0" stop-color="#4c5c7d"/><stop offset=".989" stop-color="#2f4652"/></linearGradient><path fill="url(#AW)" d="M437.345 136.536l-10.273 16.566 15.949-17.497-3.471-8.816z"/><linearGradient id="AX" x1="447.584" x2="432.897" y1="134.673" y2="140.098" gradientUnits="userSpaceOnUse"><stop offset="0" stop-color="#91bae4"/><stop offset="1" stop-color="#6281a1" stop-opacity="0"/></linearGradient><path fill="url(#AX)" d="M445.945 135.135l-18.874 17.966 15.949-17.497-3.471-8.816z"/><linearGradient id="AY" x1="347.82" x2="339.251" y1="164.992" y2="155.433" gradientUnits="userSpaceOnUse"><stop offset="0" stop-color="#4c5c7d"/><stop offset=".989" stop-color="#2f4652"/></linearGradient><path fill="url(#AY)" d="M341.869 153.368l-6.48 10.448 10.06-11.036-2.189-5.56z"/><linearGradient id="AZ" x1="348.326" x2="339.063" y1="152.193" y2="155.615" gradientUnits="userSpaceOnUse"><stop offset="0" stop-color="#91bae4"/><stop offset="1" stop-color="#6281a1" stop-opacity="0"/></linearGradient><path fill="url(#AZ)" d="M347.293 152.485l-11.904 11.332 10.06-11.036-2.189-5.56z"/><linearGradient id="Aa" x1="199.273" x2="189.144" y1="193.566" y2="182.268" gradientUnits="userSpaceOnUse"><stop offset="0" stop-color="#4c5c7d"/><stop offset=".989" stop-color="#2f4652"/></linearGradient><path fill="url(#Aa)" d="M192.242 179.826l-7.66 12.351 11.891-13.045-2.588-6.573z"/><linearGradient id="Ab" x1="199.875" x2="188.925" y1="178.437" y2="182.482" gradientUnits="userSpaceOnUse"><stop offset="0" stop-color="#91bae4"/><stop offset="1" stop-color="#6281a1" stop-opacity="0"/></linearGradient><path fill="url(#Ab)" d="M198.654 178.782l-14.072 13.395 11.891-13.045-2.588-6.573z"/><linearGradient id="Ac" x1="185.16" x2="172.924" y1="199.184" y2="185.535" gradientUnits="userSpaceOnUse"><stop offset="0" stop-color="#4c5c7d"/><stop offset=".989" stop-color="#2f4652"/></linearGradient><path fill="url(#Ac)" d="M176.667 182.587l-9.252 14.919 14.364-15.758-3.126-7.94z"/><linearGradient id="Ad" x1="185.888" x2="172.661" y1="180.909" y2="185.795" gradientUnits="userSpaceOnUse"><stop offset="0" stop-color="#91bae4"/><stop offset="1" stop-color="#6281a1" stop-opacity="0"/></linearGradient><path fill="url(#Ad)" d="M184.412 181.326l-16.998 16.181 14.364-15.758-3.126-7.94z"/><linearGradient id="Ae" x1="43.983" x2="46.704" y1="197.144" y2="208.378" gradientUnits="userSpaceOnUse"><stop offset="0" stop-color="#4c5c7d"/><stop offset=".989" stop-color="#2f4652"/></linearGradient><path fill="url(#Ae)" d="M49.493 204.087l-13.482 15.498 14.611-11.203 8.559-3.847z"/><linearGradient id="Af" x1="48.103" x2="47.048" y1="205.447" y2="219.226" gradientUnits="userSpaceOnUse"><stop offset="0" stop-color="#91bae4"/><stop offset="1" stop-color="#6281a1" stop-opacity="0"/></linearGradient><path fill="url(#Af)" d="M50.915 209.819l-14.904 9.766 14.611-11.203 8.559-3.847z"/><linearGradient id="Ag" x1="82.262" x2="84.983" y1="354.616" y2="365.85" gradientUnits="userSpaceOnUse"><stop offset="0" stop-color="#4c5c7d"/><stop offset=".989" stop-color="#2f4652"/></linearGradient><path fill="url(#Ag)" d="M87.772 361.559l-13.482 15.498 14.611-11.203 8.559-3.847z"/><linearGradient id="Ah" x1="86.382" x2="85.327" y1="362.919" y2="376.698" gradientUnits="userSpaceOnUse"><stop offset="0" stop-color="#91bae4"/><stop offset="1" stop-color="#6281a1" stop-opacity="0"/></linearGradient><path fill="url(#Ah)" d="M89.194 367.291l-14.904 9.766 14.611-11.203 8.559-3.847z"/><linearGradient id="Ai" x1="46.863" x2="36.217" y1="216.842" y2="196.259" gradientUnits="userSpaceOnUse"><stop offset="0" stop-color="#4c5c7d"/><stop offset=".989" stop-color="#2f4652"/></linearGradient><path fill="url(#Ai)" d="M46.135 190.119l-21.492 26.014 22.702-21.045 8.133-3.841z"/><linearGradient id="Aj" x1="38.448" x2="41.175" y1="194.745" y2="209.879" gradientUnits="userSpaceOnUse"><stop offset="0" stop-color="#91bae4"/><stop offset="1" stop-color="#6281a1" stop-opacity="0"/></linearGradient><path fill="url(#Aj)" d="M24.642 216.132l23.2-18.935 7.635-5.951-8.133 3.841z"/><linearGradient id="Ak" x1="113.601" x2="102.955" y1="492.585" y2="472.001" gradientUnits="userSpaceOnUse"><stop offset="0" stop-color="#4c5c7d"/><stop offset=".989" stop-color="#2f4652"/></linearGradient><path fill="url(#Ak)" d="M112.873 465.861l-21.492 26.014 22.702-21.045 8.133-3.841z"/><linearGradient id="Al" x1="105.186" x2="107.914" y1="470.487" y2="485.622" gradientUnits="userSpaceOnUse"><stop offset="0" stop-color="#91bae4"/><stop offset="1" stop-color="#6281a1" stop-opacity="0"/></linearGradient><path fill="url(#Al)" d="M91.381 491.875l23.2-18.935 7.635-5.951-8.133 3.841z"/><defs><path id="An" d="M439.897 306.521l-31.787 27.923-15.295 13.443c-1.683 1.471-3.631 2.35-5.642 2.71-1.376.243-2.784.243-4.16.011-4.964-.804-9.558-4.488-10.903-10.024l-.794-3.271c-1.048-4.287.254-8.648 3.387-11.474l25.923-23.361h.011l-34.677-12.681c-4.202-1.545-7.42-5.113-8.457-9.389l-.751-3.112c-1.694-6.954 2.678-12.945 8.817-14.216.116-.032.233-.053.349-.074 2.011-.349 4.192-.201 6.415.572l62.441 21.932c9.209 3.228 12.056 14.914 5.123 21.011z"/><path id="Ao" d="M328.066 250.008l-1.006 8.563-15.761 133.869c-.593 5.081-4.361 9.05-9.431 9.939-8.415 1.482-16.301-5.885-15.306-14.322l6.954-59.149 9.802-83.283c.593-5.081 4.361-9.05 9.431-9.939 8.426-1.492 16.301 5.885 15.316 14.322z"/><path id="Ap" d="M347.754 96.606l4.992-5.939c-1.484 1.765-2.118 4.215-1.508 6.732l-4.992 5.939c-.611-2.517.024-4.966 1.508-6.732z"/></defs></svg>